PathFileType	4	(X/Y/Z)	TVC_58_BWA_05_walk_RCNL2025.trc
DataRate	CameraRate	NumFrames	NumMarkers	Units	OrigDataRate	OrigDataStartFrame	OrigNumFrames
100	100	7	27	mm	100	92	366
Frame#	Time	R_Shoulder			L_Shoulder			C7			J_Notch			R_Elbow			L_Elbow			R_Wrist			L_Wrist			R_Asis			L_Asis			R_Psis			L_Psis			Sacral			Thoracic			Sternum			R_Thigh_Lateral			R_Knee_Lateral			R_Shank_Lateral			R_Ankle_Lateral			R_Heel			R_Toe			L_Thigh_Lateral			L_Knee_Lateral			L_Shank_Lateral			L_Ankle_Lateral			L_Heel			L_Toe		
		X1	Y1	Z1	X2	Y2	Z2	X3	Y3	Z3	X4	Y4	Z4	X5	Y5	Z5	X6	Y6	Z6	X7	Y7	Z7	X8	Y8	Z8	X9	Y9	Z9	X10	Y10	Z10	X11	Y11	Z11	X12	Y12	Z12	X13	Y13	Z13	X14	Y14	Z14	X15	Y15	Z15	X16	Y16	Z16	X17	Y17	Z17	X18	Y18	Z18	X19	Y19	Z19	X20	Y20	Z20	X21	Y21	Z21	X22	Y22	Z22	X23	Y23	Z23	X24	Y24	Z24	X25	Y25	Z25	X26	Y26	Z26	X27	Y27	Z27
92	0.91000000	-1238.201538	1326.073486	394.820526	-1230.268188	1344.819092	37.130741	-1294.098511	1405.059570	208.544128	-1148.473511	1310.540527	216.984070	-1283.142944	1006.291687	448.401520	-1279.654175	1023.133789	-28.596464	-1220.583618	766.373779	488.731445	-1185.615295	796.634369	-90.404659	-1103.890381	911.712097	353.644653	-1115.527954	895.105957	47.632977	-1336.717285	932.584900	265.031036	-1342.061523	924.239502	152.610168	-1339.389404	928.412201	208.820602	-1337.082153	1096.301758	203.278931	-1038.336304	1083.243896	202.195023	-1115.069214	694.943481	441.545624	-1068.228394	469.867371	346.110168	-1081.946899	262.886597	380.260956	-1111.891113	66.044380	281.101898	-1165.155884	56.938763	228.011826	-985.173706	46.432495	244.402893	-1211.570679	651.419067	-33.548069	-1197.850098	439.828156	56.404984	-1352.821289	309.438660	9.542831	-1519.657837	163.703720	107.941528	-1546.109131	196.686584	161.604080	-1449.002319	44.033070	143.716568
93	0.92000000	-1229.781006	1327.012329	396.066132	-1221.999634	1346.213013	38.484043	-1285.810913	1406.052002	209.953110	-1140.132812	1311.639771	218.220703	-1272.369995	1006.919312	450.142792	-1271.783447	1025.065918	-27.840710	-1205.662048	767.956329	490.003616	-1181.933105	797.391266	-90.517288	-1095.714233	912.553284	354.832001	-1107.347046	895.994263	49.036545	-1328.356689	933.949646	266.363220	-1333.781860	924.614868	153.855850	-1331.069275	929.282257	210.109535	-1328.754395	1097.270752	204.478363	-1030.152344	1084.144165	203.041656	-1108.758545	695.244690	442.145172	-1065.907959	469.182892	347.382782	-1081.299805	262.528320	381.182220	-1111.828491	65.859848	281.089447	-1165.186157	57.022827	228.057159	-985.229492	46.354443	244.273804	-1199.422241	651.776489	-33.019035	-1179.491699	439.904907	55.262867	-1336.359253	311.913086	8.244413	-1506.833008	171.513687	107.564568	-1531.680908	205.082016	161.735764	-1441.918213	47.193958	141.694687
94	0.93000000	-1221.276245	1327.835693	397.279938	-1213.756348	1347.446045	39.796284	-1277.498047	1406.991699	211.333633	-1131.788086	1312.606934	219.401459	-1261.564331	1007.459900	451.941345	-1263.936890	1026.819946	-27.181452	-1190.584412	769.558838	491.232132	-1178.150085	798.102295	-90.647034	-1087.653931	913.100586	355.880524	-1099.358032	896.634277	50.274265	-1320.179077	935.247192	267.684723	-1325.732422	924.952576	155.117279	-1322.955750	930.099884	211.401001	-1320.546631	1098.222046	205.692215	-1022.017395	1084.724854	203.781723	-1103.117432	695.571472	442.781708	-1063.349976	468.564697	348.505585	-1080.404053	262.057617	382.076050	-1111.741089	65.676849	281.097412	-1165.199219	57.135895	228.133850	-985.251404	46.266750	244.156494	-1187.343384	652.070618	-32.481773	-1160.904663	440.177399	54.375130	-1318.404175	313.615723	7.349881	-1493.026978	179.008575	107.377586	-1516.555542	212.797256	162.090866	-1432.860596	51.110619	139.117325
95	0.94000000	-1212.687378	1328.537231	398.458679	-1205.538696	1348.507812	41.062885	-1269.159668	1407.873169	212.682541	-1123.441284	1313.433105	220.523361	-1250.715088	1007.909058	453.792542	-1256.158691	1028.379639	-26.602352	-1175.383728	771.170593	492.406570	-1174.241455	798.759705	-90.775738	-1079.704346	913.364868	356.771423	-1091.550415	897.046814	51.321983	-1312.189697	936.462463	268.968903	-1317.905029	925.260498	156.372360	-1315.047363	930.861481	212.670631	-1312.459229	1099.150513	206.913071	-1013.933655	1084.994873	204.418213	-1098.042969	695.927917	443.472565	-1060.525513	468.009613	349.484619	-1079.125488	261.467499	382.892792	-1111.630127	65.504364	281.129730	-1165.192505	57.282688	228.245499	-985.247559	46.179058	244.056030	-1175.350220	652.335327	-31.921831	-1142.159546	440.689545	53.759960	-1299.207031	314.671082	6.919027	-1478.265869	186.025421	107.386177	-1500.788818	219.663620	162.677292	-1421.586304	55.673054	136.013290
96	0.95000000	-1204.018188	1329.117920	399.598999	-1197.347046	1349.396606	42.279915	-1260.796875	1408.693970	213.996628	-1115.095459	1314.115112	221.584274	-1239.811646	1008.269287	455.688782	-1248.492798	1029.739624	-26.084604	-1160.093628	772.784180	493.516876	-1170.186890	799.359985	-90.884933	-1071.863647	913.370667	357.498199	-1083.915283	897.269531	52.160118	-1304.390381	937.583862	270.189819	-1310.287231	925.550537	157.600876	-1307.338806	931.567200	213.895348	-1304.490234	1100.052612	208.133408	-1005.907776	1084.978394	204.956146	-1093.353760	696.309570	444.208344	-1057.455322	467.507507	350.339600	-1077.354858	260.786011	383.587952	-1111.499023	65.350006	281.185059	-1165.166138	57.463722	228.390320	-985.226868	46.097771	243.974167	-1163.454712	652.603943	-31.327261	-1123.322998	441.479309	53.424129	-1279.170044	315.313446	6.974107	-1462.579346	192.399384	107.577942	-1484.426025	225.530502	163.475906	-1407.950806	60.708282	132.476028
97	0.96000000	-1195.276367	1329.584473	400.697662	-1189.182129	1350.118530	43.444191	-1252.411865	1409.454590	215.272812	-1106.754517	1314.654419	222.582840	-1228.843506	1008.549072	457.619507	-1240.980469	1030.904175	-25.607534	-1144.747559	774.395325	494.553467	-1165.970764	799.903534	-90.956303	-1064.134155	913.154236	358.067932	-1076.444458	897.353027	52.775780	-1296.780029	938.603760	271.323700	-1302.862549	925.836243	158.785233	-1299.821289	932.220001	215.054466	-1296.635498	1100.927124	209.345947	-997.949341	1084.712891	205.402267	-1088.818359	696.697449	444.956451	-1054.191040	467.044403	351.093048	-1075.054932	260.059692	384.132507	-1111.352051	65.219322	281.257507	-1165.121948	57.676144	228.561783	-985.196594	46.025776	243.908997	-1151.663940	652.905457	-30.689383	-1104.458252	442.576172	53.365082	-1258.746948	315.807190	7.487967	-1445.998901	197.970520	107.922844	-1467.501343	230.272324	164.439774	-1391.928467	65.991982	128.660294
98	0.97000000	-1186.472290	1329.949097	401.751526	-1181.046021	1350.686401	44.553349	-1244.007690	1410.157104	216.508163	-1098.423096	1315.057251	223.518448	-1217.801392	1008.761841	459.571350	-1233.658203	1031.885986	-25.149343	-1129.378479	776.002289	495.507553	-1161.582275	800.394104	-90.972168	-1056.521973	912.760864	358.500854	-1069.129395	897.356506	53.164368	-1289.353760	939.518066	272.350555	-1295.610718	926.130981	159.911026	-1292.482239	932.824524	216.130791	-1288.888794	1101.773560	210.543930	-990.069885	1084.245728	205.764709	-1084.196533	697.054871	445.668518	-1050.796631	466.605103	351.760071	-1072.284180	259.338928	384.514862	-1111.192261	65.115486	281.337830	-1165.062134	57.914532	228.749664	-985.161499	45.963078	243.855591	-1139.979248	653.262634	-30.003157	-1085.626221	443.999695	53.572922	-1238.344971	316.370941	8.377856	-1428.557251	202.590439	108.376503	-1450.039185	233.793228	165.498535	-1373.611938	71.266708	124.765068
